<svg width="27" height="24" viewBox="0 0 27 24" fill="none" xmlns="http://www.w3.org/2000/svg">
<g id="Chest" clip-path="url(#clip0_90_1007)">
<path id="Vector" d="M19.5601 0.466229C19.5669 0.465259 19.5737 0.46415 19.5806 0.463318C19.9616 0.420418 20.8429 0.983661 21.1548 1.23448C22.5798 2.3803 23.4279 4.31606 23.6234 6.1078C22.7158 6.24017 21.8067 6.36173 20.8961 6.47228C20.6435 6.50637 20.3907 6.53798 20.1375 6.56702C20.1365 6.56369 20.1355 6.56022 20.1344 6.5569C19.9038 5.87424 19.5927 5.46978 18.9399 5.15804C19.205 5.12637 19.5769 5.12131 19.796 4.95637C19.9083 4.87181 19.9662 4.75039 19.9858 4.61282C20.0016 4.50103 19.9867 4.39028 19.9479 4.28466C19.8603 4.04556 19.6692 3.78158 19.5489 3.54656L18.8434 2.19227C18.7334 1.97978 18.6373 1.76022 18.5249 1.54912C18.3506 1.22186 18.1458 0.924474 17.9202 0.630829C18.4671 0.583216 19.0137 0.520841 19.5601 0.466229Z" fill="white"/>
<path id="Vector_2" d="M15.4017 0.00594109C15.612 -0.0163058 15.8031 0.0256237 16.0017 0.0931962C17.1795 0.493849 17.6847 1.63336 18.2058 2.6552C18.4556 3.14505 18.7127 3.63122 18.9558 4.12433C18.7361 4.16147 18.5096 4.17949 18.288 4.20507L16.8689 4.35913L13.5481 4.74197C13.3912 4.76408 13.2017 4.811 13.0655 4.7042C12.9196 4.58992 12.8327 4.30175 12.7561 4.13056L12.2643 3.03547C11.7323 1.85853 11.2345 1.04815 10.0128 0.480958C10.6789 0.454899 11.3498 0.36612 12.0138 0.304992L15.4017 0.00594109Z" fill="white"/>
<path id="Vector_3" d="M9.25956 1.23782C9.52209 1.20566 9.81699 1.37684 10.0195 1.52904C10.064 1.56272 10.1077 1.59751 10.1506 1.6332C10.1935 1.6689 10.2355 1.70563 10.2767 1.74326C10.3179 1.78096 10.3582 1.81957 10.3976 1.85907C10.4369 1.89857 10.4754 1.93905 10.513 1.98035C10.5505 2.02166 10.587 2.0638 10.6227 2.10683C10.6583 2.1498 10.6928 2.19361 10.7264 2.23824C10.76 2.2828 10.7925 2.3282 10.8239 2.37421C10.8554 2.4203 10.8858 2.46708 10.9151 2.51463C11.1165 2.83385 11.262 3.16796 11.4178 3.5104L11.8686 4.50236C11.9818 4.75547 12.0833 5.02597 12.2318 5.26049C12.3257 5.40895 12.4494 5.55199 12.5955 5.6513C12.7149 5.7326 12.8344 5.77335 12.9781 5.78347C13.1535 5.79581 13.3346 5.76185 13.5083 5.74029L14.2375 5.65103C14.5896 5.61014 14.954 5.59808 15.3023 5.53439C15.171 5.66967 15.0396 5.8089 14.9311 5.96345C14.6142 6.41491 14.5444 6.91224 14.6385 7.44769C14.4045 7.48955 14.1617 7.50924 13.9258 7.5416L11.982 7.80441C11.7562 7.83864 11.5287 7.86124 11.3026 7.89305L9.5074 8.14698C9.44405 7.65692 9.31715 7.15037 9.19288 6.67189C8.69069 4.73842 7.77689 2.6172 5.97638 1.55981C7.07232 1.47865 8.16473 1.33769 9.25942 1.23782H9.25956Z" fill="white"/>
<path id="Vector_4" d="M26.7089 9.0467C26.5678 8.65076 26.4207 8.25703 26.2676 7.86553C26.1702 7.61998 26.0477 7.3718 25.9803 7.11662C25.9331 6.93788 25.9312 6.74092 25.907 6.55761C25.8642 6.2336 25.8086 5.91189 25.7401 5.59232C25.4221 4.14717 24.8783 2.71471 23.8962 1.58545C23.5201 1.15299 23.0855 0.777216 22.565 0.528549C22.1873 0.348148 21.7517 0.24225 21.3315 0.26318C21.1893 0.273576 21.0474 0.290417 20.9089 0.325208C21.7573 0.579627 22.5599 1.12915 23.1387 1.79808C23.4623 2.17191 23.7479 2.62004 23.9814 3.05458C24.6805 4.35558 25.007 5.84529 25.1645 7.30388L21.1372 7.87336C20.6387 7.93899 20.1308 8.04302 19.6299 8.07338C19.5744 7.24456 19.5702 6.47728 18.8831 5.87959C18.5274 5.57022 18.079 5.40749 17.6065 5.44533C17.1306 5.48345 16.7252 5.71375 16.421 6.07697C16.0941 6.46737 15.9205 7.0347 15.9694 7.54167C16.0052 7.91162 16.1081 8.27374 16.1515 8.64362C15.8975 8.68978 15.6409 8.72131 15.3856 8.76005C14.8149 8.84862 14.2435 8.93241 13.6714 9.01135L10.6732 9.44576C9.89604 9.55574 9.11496 9.65256 8.34025 9.77807C8.30262 9.50875 8.28176 9.23722 8.24918 8.96727C8.20483 8.61576 8.15007 8.26591 8.08493 7.91758C7.73576 6.02604 6.8957 3.36777 5.30346 2.16491C4.83481 1.8109 4.22159 1.5465 3.62403 1.63265C2.95543 1.72905 2.40507 2.19949 2.0157 2.72538C1.12671 3.92609 0.779904 5.62524 0.724181 7.0941C0.710459 7.32627 0.734647 7.58609 0.697221 7.81362C0.661806 8.02881 0.547104 8.26251 0.472184 8.46835L0 9.77246C0.904932 10.0682 1.82033 10.3394 2.72942 10.6227L5.31295 11.4372C5.92534 11.6196 6.53579 11.8082 7.14437 12.0028C7.45944 12.1006 7.77637 12.1917 8.08888 12.2977C9.05126 12.0973 10.03 11.9679 10.9975 11.7945C12.1187 11.5868 13.242 11.3916 14.3675 11.2087C15.0087 11.0999 15.6504 10.9827 16.2939 10.889C16.3739 11.7316 16.4485 12.5749 16.5176 13.4185C17.1322 13.5946 17.9291 14.1819 18.4039 14.6061C18.76 14.0301 19.3645 13.2844 19.9098 12.8836C19.8459 12.0011 19.7956 11.1157 19.7183 10.2343L25.2481 9.30015C25.7355 9.21996 26.2207 9.12009 26.7089 9.0467ZM17.221 7.50577C17.1823 7.31324 17.2154 7.10033 17.3302 6.93878C17.4514 6.76836 17.6242 6.69628 17.8239 6.66454C17.8409 6.66267 17.8579 6.66149 17.875 6.66101C17.892 6.66052 17.9092 6.6608 17.9262 6.6617C17.9433 6.66267 17.9602 6.66427 17.9772 6.66662C17.9941 6.66898 18.0109 6.67203 18.0276 6.67577C18.0443 6.67951 18.0607 6.68395 18.0771 6.68901C18.0934 6.69407 18.1095 6.69989 18.1253 6.70626C18.1411 6.71264 18.1567 6.71978 18.1719 6.72747C18.1871 6.73516 18.202 6.74355 18.2166 6.75249C18.387 6.85485 18.5085 7.03075 18.5511 7.22425C18.5538 7.2361 18.5563 7.24802 18.5584 7.26001C18.5604 7.272 18.5622 7.28399 18.5637 7.29612C18.5651 7.30825 18.5663 7.32031 18.5672 7.33244C18.568 7.34456 18.5685 7.35669 18.5687 7.36889C18.5689 7.38109 18.5687 7.39322 18.5683 7.40534C18.5678 7.41754 18.5672 7.42967 18.566 7.44173C18.5649 7.45386 18.5636 7.46592 18.5619 7.47798C18.5602 7.49004 18.5581 7.50203 18.5558 7.51395C18.5534 7.52587 18.5508 7.53779 18.5479 7.54957C18.5449 7.56135 18.5417 7.57306 18.5381 7.58471C18.5346 7.59635 18.5307 7.60785 18.5265 7.61929C18.5224 7.63072 18.5179 7.64202 18.5132 7.65318C18.5085 7.66434 18.5033 7.67543 18.498 7.68638C18.4927 7.69733 18.487 7.70807 18.4811 7.71874C18.4753 7.72935 18.4691 7.73988 18.4626 7.75021C18.4562 7.76053 18.4495 7.77065 18.4425 7.78063C18.3185 7.96062 18.1614 8.0426 17.9518 8.07982C17.8027 8.08925 17.6735 8.06534 17.5454 7.98473C17.3745 7.87717 17.2607 7.70273 17.2211 7.50591L17.221 7.50577ZM18.7565 11.6702C18.7467 11.78 18.7117 11.8863 18.6473 11.9763C18.5702 12.084 18.4286 12.1815 18.2953 12.1989C18.1515 12.2176 18.0223 12.1568 17.9123 12.0698C17.8448 11.9938 17.7931 11.9168 17.7613 11.8194C17.7069 11.6525 17.7089 11.4579 17.6944 11.2835L17.6334 10.5398C17.9657 10.4821 18.2976 10.4221 18.629 10.3599L18.65 10.3693C18.6529 10.3784 18.6568 10.3897 18.6588 10.3993C18.6807 10.5056 18.6733 10.6345 18.683 10.7449C18.7072 11.0166 18.7799 11.4091 18.7566 11.6703L18.7565 11.6702Z" fill="white"/>
<path id="Vector_5" d="M25.1606 10.4687C25.1823 10.4637 25.1691 10.4651 25.2003 10.4694C25.2434 10.5416 25.4991 16.5356 25.5223 17.1839C25.7596 17.1213 25.996 17.0551 26.2313 16.9856C26.2295 17.8174 26.2443 18.6506 26.2281 19.4822C25.9629 19.5351 25.7042 19.6205 25.4451 19.6967L24.6051 19.9373C24.592 19.9029 24.5776 19.869 24.5616 19.8357C24.5457 19.8025 24.5284 19.77 24.5098 19.7382C24.4911 19.7064 24.4712 19.6755 24.4499 19.6454C24.4286 19.6153 24.4061 19.5862 24.3823 19.558C24.2215 19.3672 23.9623 19.1756 23.7055 19.1586C23.452 19.1419 22.4983 19.4187 22.165 19.4932C19.5851 20.0787 17.0123 20.6941 14.4466 21.3394L12.029 21.9252C11.6401 22.0184 11.1963 22.0971 10.8196 22.2148C10.5442 22.3008 10.2492 22.4428 10.0313 22.6348C9.75336 22.8798 9.54676 23.2242 9.52243 23.5986C8.92404 23.7212 8.3296 23.8691 7.73273 24.0002C7.30595 23.7445 6.84298 23.5477 6.41689 23.2903C6.39297 23.033 6.36823 22.7897 6.27197 22.5469C6.25665 22.508 6.24002 22.4696 6.2222 22.4318C6.20432 22.3938 6.18526 22.3566 6.16503 22.32C6.14472 22.2834 6.1233 22.2475 6.10064 22.2123C6.07798 22.1771 6.05421 22.1426 6.02932 22.1089C6.00444 22.0752 5.97845 22.0425 5.95142 22.0105C5.9244 21.9786 5.89633 21.9475 5.86729 21.9174C5.83818 21.8872 5.80817 21.8581 5.77719 21.83C5.74621 21.8018 5.71433 21.7747 5.68162 21.7486C5.52062 21.619 5.31325 21.5283 5.13021 21.4322C4.78985 21.2547 4.44831 21.0795 4.10559 20.9066L3.13156 20.4163C2.95025 20.3253 2.76888 20.2249 2.58182 20.1463C2.38236 20.0624 2.18629 20.0236 1.9801 20.1134C1.78217 20.1995 1.65339 20.3832 1.57951 20.5788C1.26195 20.4128 0.940164 20.2432 0.612761 20.0977C0.609642 19.7011 0.602157 19.3045 0.590236 18.908C0.581088 18.4785 0.576167 18.0476 0.551147 17.6187C0.784502 17.7155 1.00219 17.8402 1.24068 17.9288C1.28732 17.1349 1.29321 16.3344 1.31601 15.5392L1.42157 12.0751C1.43092 11.8221 1.43085 11.5689 1.44742 11.3163C1.79332 11.4192 2.1348 11.5434 2.47772 11.6562L4.14807 12.1941L5.73249 12.7101C6.48085 12.9419 7.22368 13.1903 7.96096 13.4554C7.94952 16.0968 7.87973 18.7384 7.89075 21.38C8.32877 21.2879 8.76602 21.1925 9.20265 21.094C9.21277 20.0265 9.22947 18.9592 9.25276 17.8919L9.31437 13.3077L13.124 12.6105C13.7657 12.4919 14.4049 12.359 15.0495 12.2566C15.0822 12.5368 15.098 12.8198 15.1249 13.1008C15.173 13.6045 15.2288 14.1066 15.2716 14.6109C15.4336 14.6394 15.596 14.6814 15.7537 14.7281C16.7687 15.0285 17.7576 15.745 18.3103 16.653C18.4275 16.8456 18.5243 17.0467 18.6158 17.2524C18.6663 17.3662 18.7116 17.4893 18.7718 17.5979L18.7854 17.622C18.8197 17.3594 18.8506 17.0944 18.9045 16.835C19.2231 15.2989 19.9834 14.3344 21.2802 13.4834C21.2719 13.2165 21.2387 12.9479 21.2192 12.6814L21.1138 11.1934C21.5877 11.1249 22.0634 11.0197 22.5348 10.9324C23.4087 10.7703 24.284 10.6159 25.1606 10.4689V10.4687Z" fill="white"/>
</g>
<defs>
<clipPath id="clip0_90_1007">
<rect width="26.7089" height="24" fill="white"/>
</clipPath>
</defs>
</svg>
