<svg width="20" height="24" viewBox="0 0 20 24" fill="none" xmlns="http://www.w3.org/2000/svg">
<g id="objects" clip-path="url(#clip0_90_988)">
<path id="Vector" d="M16.8805 9.64181C15.3133 7.91759 17.2338 3.72324 17.2338 3.72324C15.3918 3.84102 14.0591 6.42787 14.0591 6.42787C10.581 2.41284 12.8835 0 12.8835 0C4.61361 3.52695 6.61264 12.5417 6.61264 12.5417C4.33986 10.1511 5.2407 6.89792 5.2407 6.89792C0.106251 10.8175 0.733334 15.7949 0.733334 15.7949C0.943423 19.0035 2.08087 21.0832 3.4995 22.4286C4.52661 23.4037 5.88157 23.9501 7.29278 23.9947C7.39358 23.4886 7.51878 22.9888 7.66839 22.4944C7.67157 22.4838 7.67369 22.4774 7.67369 22.4763C7.70765 22.2556 7.84983 22.0795 7.58457 21.7835C7.50074 21.6901 7.42116 21.5935 7.34583 21.4959C6.81318 20.8052 6.46621 19.9935 6.30387 19.1117C6.21368 19.2666 6.07787 19.343 5.88688 19.3218C5.84337 19.3186 5.70013 19.2942 5.67467 19.29C5.29693 19.2178 4.94891 19.0873 4.61892 18.9239C4.24967 18.7414 3.90164 18.5154 3.55892 18.282C3.19498 18.0592 2.8321 17.8342 2.47028 17.6061C2.37903 17.5488 2.29839 17.4788 2.24534 17.3949C2.19971 17.3366 2.17319 17.2581 2.17637 17.1732C2.17425 17.1244 2.18061 17.0724 2.19547 17.0161C2.28884 16.6639 2.38752 16.3148 2.51485 15.9774C2.51485 15.9752 2.51591 15.9731 2.51697 15.971C2.65278 15.5933 2.82361 15.2346 3.06766 14.9152C3.0772 14.9015 3.08675 14.8887 3.0963 14.876C3.22787 14.6977 3.35945 14.5375 3.55574 14.4197C3.62153 14.3677 3.69049 14.3179 3.76371 14.2691C3.80933 14.2394 3.85496 14.2043 3.89846 14.1661C3.95151 14.1152 4.00138 14.0611 4.04807 14.0038C4.06823 13.9805 4.08733 13.9561 4.10643 13.9306C4.12871 13.8956 4.14887 13.8595 4.16585 13.8234C4.40034 13.3141 4.77914 13.104 5.25555 13.0319C5.49323 12.9693 5.74682 12.9544 6.00359 12.9926C6.07575 13.0032 6.14896 13.0181 6.22111 13.0372C6.24764 13.0435 6.27416 13.0563 6.30175 13.0722C6.54261 13.1688 6.66145 13.3757 6.74527 13.7746C6.80045 13.9529 6.82379 14.1269 6.7962 14.2521C6.78453 14.3285 6.75376 14.3805 6.69752 14.4144C6.66569 14.4367 6.62962 14.4494 6.59248 14.4569C6.53943 14.4675 6.48213 14.4685 6.42802 14.4749C6.09166 14.5152 5.78608 14.3815 5.47094 14.3009C5.37757 14.2765 5.28844 14.2659 5.20674 14.268C4.94678 14.2839 4.7802 14.4378 4.70486 14.7349C4.69531 14.7826 4.68576 14.8304 4.67728 14.8781C4.67728 14.8781 4.67728 14.8792 4.67728 14.8802C4.65605 15.0245 4.63589 15.1688 4.6168 15.3131C4.5648 15.7132 4.51812 16.1195 4.46506 16.5429C4.51281 16.5355 4.98498 16.3604 5.15051 16.3434C5.21205 16.3307 5.27359 16.3222 5.33831 16.3222C5.38075 16.3222 5.4232 16.3254 5.4667 16.3328C5.82109 16.3912 6.07362 16.6098 6.3357 16.8538C6.40255 16.6777 6.48956 16.5652 6.59036 16.5005C6.69328 16.4177 6.85987 16.3986 7.08799 16.4453C7.24503 16.4771 7.59942 16.6235 7.91455 16.7615C8.22969 16.8984 8.52678 17.0713 8.80902 17.2665C9.17827 17.5223 9.57617 17.6506 9.99847 17.6506C10.2319 17.6506 10.4706 17.6093 10.7073 17.5276C10.8951 17.4628 11.0701 17.3758 11.2346 17.2644C11.5381 17.0586 11.8564 16.8771 12.1927 16.7318C12.4877 16.6034 12.8028 16.4761 12.9493 16.4453C13.1784 16.3986 13.344 16.4177 13.4469 16.5005C13.5477 16.5652 13.6347 16.6777 13.7015 16.8538C13.9636 16.6098 14.2162 16.3912 14.5705 16.3328C14.6141 16.3254 14.6565 16.3222 14.6989 16.3222C14.7626 16.3222 14.8252 16.3307 14.8867 16.3434C15.0523 16.3604 15.5244 16.5355 15.5722 16.5429C15.5191 16.1206 15.4735 15.7142 15.4205 15.3142C15.4014 15.1688 15.3812 15.0245 15.36 14.8802C15.36 14.8802 15.36 14.8792 15.36 14.8781C15.3515 14.8304 15.3419 14.7826 15.3324 14.7349C15.2571 14.4388 15.0905 14.2839 14.8305 14.268C14.7488 14.2659 14.6597 14.2765 14.5663 14.3009C14.2512 14.3826 13.9456 14.5163 13.6092 14.4749C13.5551 14.4685 13.4989 14.4675 13.4458 14.4569C13.4087 14.4494 13.3737 14.4378 13.3418 14.4144C13.2846 14.3805 13.2538 14.3285 13.2421 14.251C13.2156 14.1258 13.2379 13.9529 13.293 13.7746C13.3769 13.3735 13.4957 13.1666 13.7376 13.0701C13.7641 13.0542 13.7907 13.0414 13.8172 13.0351C13.8904 13.016 13.9626 13.0011 14.0347 12.9905C14.2915 12.9534 14.5451 12.9672 14.7828 13.0298C15.2602 13.103 15.638 13.312 15.8725 13.8213C15.8894 13.8574 15.9096 13.8935 15.9319 13.9274C15.951 13.9518 15.9701 13.9773 15.9902 14.0006C16.038 14.0579 16.0889 14.1131 16.142 14.1651C16.1844 14.2022 16.23 14.2362 16.2746 14.2659C16.3478 14.3136 16.4178 14.3646 16.4836 14.4166C16.6799 14.5343 16.8115 14.6945 16.942 14.8728C16.9516 14.8855 16.9611 14.8993 16.9707 14.9121C17.2136 15.2293 17.3834 15.5869 17.5192 15.9636C17.5192 15.9646 17.5203 15.9668 17.5213 15.9678C17.6497 16.3074 17.7495 16.6586 17.8428 17.013C17.8577 17.0692 17.863 17.1212 17.8619 17.17C17.8651 17.2549 17.8386 17.3334 17.793 17.3918C17.7399 17.4766 17.6593 17.5456 17.568 17.6029C17.2073 17.83 16.8444 18.0549 16.4804 18.2788C16.1377 18.5122 15.7908 18.7372 15.4215 18.9207C15.0915 19.0841 14.7435 19.2146 14.3647 19.2868C14.3392 19.2921 14.1971 19.3154 14.1536 19.3186C13.9615 19.3398 13.8257 19.2645 13.7355 19.1085C13.5732 19.9903 13.2262 20.802 12.6935 21.4927C12.6182 21.5914 12.5376 21.6869 12.4548 21.7803C12.1895 22.0774 12.3317 22.2524 12.3657 22.4731C12.3657 22.4742 12.3667 22.4784 12.3689 22.4859C12.5185 22.9835 12.6447 23.4875 12.7466 23.9958H13.6633C14.4857 23.9958 15.2719 23.6615 15.8438 23.0705C15.9828 22.9262 16.1388 22.7766 16.3096 22.6302C17.7304 21.4068 18.7458 19.7791 19.1108 17.9859C19.8949 14.1449 18.4445 11.3628 16.8762 9.63756L16.8805 9.64181ZM11.3534 16.1981C11.1274 16.5047 10.8516 16.753 10.4866 16.8782C9.90615 17.0777 9.40109 16.9164 8.96712 16.5111C8.48328 16.0591 8.24136 15.4776 8.12358 14.8399C8.06098 14.5046 8.01535 14.1661 8.05567 13.8234C8.17557 12.8186 8.99046 11.992 10.0483 12.0005C10.8834 12.0069 11.659 12.6138 11.8999 13.434C11.9614 13.643 11.9943 13.8563 12.0007 14.0908C11.9646 14.8367 11.8171 15.5657 11.3524 16.1981H11.3534Z" fill="white"/>
</g>
<defs>
<clipPath id="clip0_90_988">
<rect width="18.6247" height="24" fill="white" transform="translate(0.708923)"/>
</clipPath>
</defs>
</svg>
