<svg width="26" height="24" viewBox="0 0 26 24" fill="none" xmlns="http://www.w3.org/2000/svg">
<g id="Layer_1" clip-path="url(#clip0_90_991)">
<path id="Vector" d="M19.6526 12.6759C22.7733 12.6759 25.3146 15.2173 25.3146 18.338C25.3146 21.4587 22.7733 24 19.6526 24C19.0655 24 18.4939 23.9073 17.9609 23.7374C16.4932 23.2739 15.2805 22.2311 14.593 20.8716C14.5853 20.8561 14.5776 20.833 14.5698 20.8252C14.2068 20.076 13.9982 19.234 13.9982 18.3457C13.9982 18.1139 14.0137 17.8899 14.0369 17.6659C14.1759 16.4995 14.678 15.4335 15.4273 14.5916C16.4546 13.4175 17.9686 12.6759 19.6526 12.6759ZM24.2332 18.338C24.2332 15.812 22.1785 13.7573 19.6526 13.7573C17.1267 13.7573 15.0719 15.812 15.0719 18.338C15.0719 20.8639 17.1267 22.9186 19.6526 22.9186C22.1785 22.9186 24.2332 20.8639 24.2332 18.338Z" fill="#FFFFFE"/>
<path id="Vector_2" d="M19.6526 14.3521C21.8463 14.3521 23.6384 16.1442 23.6384 18.3379C23.6384 20.5317 21.8463 22.3238 19.6526 22.3238C17.4588 22.3238 15.6667 20.5317 15.6667 18.3379C15.6667 16.1442 17.4511 14.3521 19.6526 14.3521ZM20.6954 17.5964C20.8576 17.5964 20.9966 17.4651 20.9966 17.2951C20.9966 16.654 20.5486 16.121 19.9538 15.9897V15.5571C19.9538 15.3949 19.8225 15.2559 19.6526 15.2559C19.4826 15.2559 19.3513 15.3872 19.3513 15.5571V15.9897C18.7643 16.1287 18.3162 16.6617 18.3162 17.2951C18.3162 18.029 18.911 18.6315 19.6526 18.6315C20.0697 18.6315 20.4019 18.9636 20.4019 19.3808C20.4019 19.7979 20.0929 20.1069 19.6989 20.13C19.6835 20.1223 19.668 20.1223 19.6526 20.1223C19.6371 20.1223 19.6217 20.1223 19.6062 20.13C19.22 20.1069 18.9033 19.7747 18.9033 19.3808C18.9033 19.2185 18.772 19.0795 18.6021 19.0795C18.4321 19.0795 18.3008 19.2108 18.3008 19.3808C18.3008 20.0142 18.7488 20.5549 19.3436 20.6862V21.111C19.3436 21.2733 19.4749 21.4123 19.6449 21.4123C19.8148 21.4123 19.9461 21.281 19.9461 21.111V20.6862C20.5486 20.5549 20.9889 20.0142 20.9889 19.3808C20.9889 18.6469 20.3941 18.0367 19.6526 18.0367C19.2355 18.0367 18.9033 17.7045 18.9033 17.2874C18.9033 16.8703 19.2355 16.5381 19.6526 16.5381C20.0697 16.5381 20.4019 16.8703 20.4019 17.2874C20.4019 17.4574 20.5332 17.5964 20.6954 17.5964Z" fill="#FFFFFE"/>
<path id="Vector_3" d="M19.3513 9.8642V12.0889C17.6674 12.1661 16.1534 12.9154 15.0642 14.0818C14.7861 14.0818 14.3381 14.0895 13.7047 14.0895C12.1598 14.0895 10.7076 13.85 9.61845 13.4175C8.62971 13.0235 8.07355 12.5137 8.07355 12.0039V10.9997C8.08127 10.9765 8.08127 10.9456 8.07355 10.9225V9.87192C8.39798 10.1732 8.83827 10.4281 9.40216 10.6598C10.5608 11.1233 12.0826 11.3782 13.7124 11.3782C15.3423 11.3782 16.864 11.131 18.0227 10.6598C18.5866 10.4281 19.0269 10.1577 19.3513 9.8642Z" fill="#FFFFFE"/>
<path id="Vector_4" d="M19.3513 8.68235C19.3358 9.67109 17.034 10.768 13.7201 10.768C10.4063 10.768 8.09671 9.67109 8.08899 8.69008V8.68235C8.08899 8.3811 8.30528 8.06439 8.70695 7.77859C9.34808 7.30739 10.4527 6.90572 11.874 6.71261H11.9126C11.9512 6.71261 11.9821 6.70488 12.0208 6.69716C12.5537 6.62764 13.1254 6.59674 13.7279 6.59674C17.0417 6.59674 19.3513 7.70134 19.3513 8.68235Z" fill="#FFFFFE"/>
<path id="Vector_5" d="M16.7172 23.861C15.7131 23.9459 14.4617 23.9923 13.7201 23.9923C12.3297 23.9923 10.9857 23.7837 9.94287 23.4284C8.78419 23.0267 8.08899 22.4551 8.08899 21.8989V20.9102C8.09671 20.887 8.09671 20.8561 8.08899 20.8252V19.597C8.47521 19.8983 9.06228 20.1841 9.83472 20.4467C11.0475 20.8561 12.631 21.1497 14.1141 21.2424C14.7012 22.3624 15.6126 23.2739 16.7172 23.861Z" fill="#FFFFFE"/>
<path id="Vector_6" d="M13.7124 14.6766C14.0523 14.6766 14.3381 14.6766 14.5776 14.6688C14.0214 15.4336 13.6429 16.3296 13.4807 17.2952C12.1752 17.1561 10.8389 16.8549 9.83472 16.5073C8.54473 16.0438 8.08899 15.5803 8.08899 15.3022V14.2981C8.09671 14.2749 8.09671 14.244 8.08899 14.2131V13.1703C8.41342 13.4638 8.85371 13.7265 9.4176 13.9505C10.5608 14.4217 12.098 14.6766 13.7124 14.6766Z" fill="#FFFFFE"/>
<path id="Vector_7" d="M13.4112 17.89C13.3957 18.0367 13.3957 18.1912 13.3957 18.338C13.3957 19.1568 13.5502 19.9292 13.836 20.6399C12.4997 20.524 11.1093 20.2536 10.0279 19.8983C8.60656 19.4194 8.08902 18.9173 8.08902 18.6083C8.08902 18.5929 8.08902 18.5697 8.0813 18.5543V17.6119C8.08902 17.5887 8.08902 17.5578 8.0813 17.5269V16.2987C9.17818 17.1407 11.5496 17.6814 13.4112 17.89Z" fill="#FFFFFE"/>
<path id="Vector_8" d="M11.6037 3.25977V6.15645C10.7849 6.28004 10.0433 6.47315 9.4099 6.72034C9.01595 6.88255 8.68379 7.05249 8.39799 7.25333C7.63326 7.40009 6.81447 7.46961 5.96477 7.46961C2.65097 7.46961 0.333618 6.37274 0.333618 5.384V3.25977C0.658047 3.5533 1.09834 3.81593 1.66223 4.03994C2.8209 4.50341 4.34263 4.76604 5.9725 4.76604C7.60237 4.76604 9.11637 4.51113 10.2828 4.03994C10.8312 3.81593 11.2869 3.5533 11.6037 3.25977Z" fill="#FFFFFE"/>
<path id="Vector_9" d="M5.97252 4.17123C9.08253 4.17123 11.6037 3.23747 11.6037 2.08561C11.6037 0.933761 9.08253 0 5.97252 0C2.86252 0 0.34137 0.933761 0.34137 2.08561C0.34137 3.23747 2.86252 4.17123 5.97252 4.17123Z" fill="#FFFFFE"/>
<path id="Vector_10" d="M7.4865 21.8989C7.4865 22.5787 8.00404 23.1889 8.95415 23.6601C8.05039 23.8764 7.02303 23.9923 5.96477 23.9923C2.65097 23.9923 0.333618 22.8954 0.333618 21.9066V19.7824C0.658047 20.0759 1.09834 20.3386 1.66223 20.5626C2.8209 21.0261 4.34263 21.281 5.9725 21.281C6.50549 21.281 7.0153 21.2578 7.4865 21.2037V21.8989Z" fill="#FFFFFE"/>
<path id="Vector_11" d="M7.71054 7.97168C7.58694 8.18797 7.5097 8.40425 7.49425 8.63599C7.48653 8.65144 7.48653 8.68233 7.48653 8.69778V10.6984C7.01533 10.7525 6.50551 10.7757 5.97252 10.7757C2.65872 10.7757 0.34137 9.67879 0.34137 8.69006V6.57355C0.665798 6.86708 1.10609 7.12971 1.66998 7.35372C2.82866 7.81719 4.35038 8.0721 5.98025 8.0721C6.55959 8.0721 7.14665 8.03348 7.71054 7.97168Z" fill="#FFFFFE"/>
<path id="Vector_12" d="M7.48653 18.6006V20.6089C7.01533 20.663 6.50552 20.6862 5.97253 20.6862C2.65872 20.6862 0.34137 19.5893 0.34137 18.6006V16.4763C0.665798 16.7698 1.10609 17.0325 1.66998 17.2565C2.82866 17.72 4.35038 17.9749 5.98025 17.9749C6.51324 17.9749 7.02306 17.9517 7.49425 17.8976L7.48653 18.6006Z" fill="#FFFFFE"/>
<path id="Vector_13" d="M7.48653 11.9962V14.0045C7.01533 14.0586 6.50552 14.0818 5.97253 14.0818C2.65872 14.0818 0.34137 12.9849 0.34137 11.9962V9.8642C0.665798 10.1577 1.10609 10.4204 1.66998 10.6444C2.82866 11.1078 4.35038 11.3627 5.98025 11.3627C6.51324 11.3627 7.02306 11.3396 7.49425 11.2855L7.48653 11.9962Z" fill="#FFFFFE"/>
<path id="Vector_14" d="M7.48653 15.3099V17.3029C7.01533 17.3569 6.50552 17.3801 5.97253 17.3801C2.65872 17.3801 0.34137 16.2832 0.34137 15.2945V13.178C0.665798 13.4715 1.10609 13.7341 1.66998 13.9582C2.82866 14.4216 4.35038 14.6843 5.98025 14.6843C6.51324 14.6843 7.02306 14.6611 7.49425 14.607L7.48653 15.3099Z" fill="#FFFFFE"/>
</g>
<defs>
<clipPath id="clip0_90_991">
<rect width="24.981" height="24" fill="white" transform="translate(0.333618)"/>
</clipPath>
</defs>
</svg>
