<svg width="24" height="24" viewBox="0 0 24 24" fill="none" xmlns="http://www.w3.org/2000/svg">
<g id="Layer_1" clip-path="url(#clip0_90_1138)">
<path id="Vector" d="M1.27712 9.94833C0.745885 10.4796 2.37998 13.0033 5.0553 15.9181L5.02768 15.8897L2.46002 18.9709L2.4756 18.9851C2.40265 18.9766 2.32969 18.9709 2.25602 18.9709C0.940673 18.9709 0.000732422 19.9448 0.000732422 21.2609C0.000732422 22.577 1.20558 24.0007 2.52093 24.0007C3.83628 24.0007 5.07584 22.9524 4.90301 21.6186C4.87681 21.4139 4.82297 21.2092 4.75073 21.008L4.9186 21.1575L7.77879 18.6649L7.76817 18.6543C10.804 21.4883 13.4779 23.2477 14.0269 22.6988C14.6502 22.0755 12.3014 18.7166 8.78036 15.1956C5.2593 11.6745 1.90045 9.32572 1.27712 9.94904V9.94833Z" fill="white"/>
<path id="Vector_2" d="M22.7406 0.0141361L15.7339 1.49665C15.4449 1.55756 15.1906 1.72827 15.0242 1.97264L8.03375 12.2256L11.5555 16.0923L22.3276 9.35121C22.6315 9.16138 22.8284 8.83909 22.8589 8.4821L23.5282 0.709706C23.5658 0.272673 23.1705 -0.0772371 22.7413 0.0134278L22.7406 0.0141361Z" fill="white"/>
</g>
<defs>
<clipPath id="clip0_90_1138">
<rect width="23.5297" height="24" fill="white"/>
</clipPath>
</defs>
</svg>
