<svg width="24" height="24" viewBox="0 0 24 24" fill="none" xmlns="http://www.w3.org/2000/svg">
<g id="cart">
<path id="Combined Shape" fill-rule="evenodd" clip-rule="evenodd" d="M19.2031 14.1031C19.1471 14.6101 18.7201 14.9931 18.2101 14.9931H10.6691C10.1851 14.9931 9.77111 14.6471 9.68511 14.1711L8.74411 8.9931H18.7251C19.0171 8.9931 19.2841 9.1131 19.4761 9.3321C19.6691 9.5511 19.7551 9.8321 19.7171 10.1211L19.2031 14.1031ZM20.9781 8.0111C20.4091 7.3641 19.5881 6.9931 18.7251 6.9931H8.37011C7.91811 5.2381 6.33311 3.9931 4.49611 3.9931H3.00011C2.44711 3.9931 2.00011 4.4401 2.00011 4.9931C2.00011 5.5451 2.44711 5.9931 3.00011 5.9931H4.49611C5.46311 5.9931 6.29111 6.6831 6.46511 7.6341L7.71811 14.5291C7.97611 15.9571 9.21811 16.9931 10.6691 16.9931H18.2101C19.7411 16.9931 21.0221 15.8451 21.1891 14.3411L21.7011 10.3761C21.8111 9.5211 21.5481 8.6601 20.9781 8.0111ZM10.5 17.9928C9.67201 17.9928 9.00001 18.6648 9.00001 19.4928C9.00001 20.3208 9.67201 20.9928 10.5 20.9928C11.328 20.9928 12 20.3208 12 19.4928C12 18.6648 11.328 17.9928 10.5 17.9928ZM16 19.4928C16 18.6648 16.672 17.9928 17.5 17.9928C18.328 17.9928 19 18.6648 19 19.4928C19 20.3208 18.328 20.9928 17.5 20.9928C16.672 20.9928 16 20.3208 16 19.4928Z" fill="#F8F9FA"/>
</g>
</svg>
