<svg width="18" height="18" viewBox="0 0 18 18" fill="none" xmlns="http://www.w3.org/2000/svg">
<g id="bag">
<path id="Vector" d="M6.60782 1.5L3.89282 4.2225" stroke="#111111" stroke-width="1.125" stroke-miterlimit="10" stroke-linecap="round" stroke-linejoin="round"/>
<path id="Vector_2" d="M11.3928 1.5L14.1078 4.2225" stroke="#111111" stroke-width="1.125" stroke-miterlimit="10" stroke-linecap="round" stroke-linejoin="round"/>
<path id="Vector_3" d="M1.5 5.88672C1.5 4.49922 2.2425 4.38672 3.165 4.38672H14.835C15.7575 4.38672 16.5 4.49922 16.5 5.88672C16.5 7.49922 15.7575 7.38672 14.835 7.38672H3.165C2.2425 7.38672 1.5 7.49922 1.5 5.88672Z" stroke="#111111" stroke-width="1.125"/>
<path id="Vector_4" d="M7.32007 10.5V13.1625" stroke="#111111" stroke-width="1.125" stroke-linecap="round"/>
<path id="Vector_5" d="M10.7703 10.5V13.1625" stroke="#111111" stroke-width="1.125" stroke-linecap="round"/>
<path id="Vector_6" d="M2.625 7.5L3.6825 13.98C3.9225 15.435 4.5 16.5 6.645 16.5H11.1675C13.5 16.5 13.845 15.48 14.115 14.07L15.375 7.5" stroke="#111111" stroke-width="1.125" stroke-linecap="round"/>
</g>
</svg>
