<svg width="21" height="21" viewBox="0 0 21 21" fill="none" xmlns="http://www.w3.org/2000/svg">
<path fill-rule="evenodd" clip-rule="evenodd" d="M18.2789 10.3572C18.2789 8.95761 17.9341 7.66856 17.2443 6.48998C16.5546 5.30471 15.6188 4.36722 14.4368 3.67748C13.2549 2.98775 11.9642 2.64288 10.5646 2.64288C9.16507 2.64288 7.87434 2.98775 6.69242 3.67748C5.51049 4.36722 4.57468 5.30303 3.88494 6.48496C3.1952 7.66688 2.85034 8.95761 2.85034 10.3572C2.85034 11.7567 3.1952 13.0475 3.88494 14.2294C4.57468 15.4113 5.51049 16.3471 6.69242 17.0369C7.87434 17.7266 9.16507 18.0715 10.5646 18.0715C11.9642 18.0715 13.2549 17.7266 14.4368 17.0369C15.6188 16.3471 16.5546 15.4113 17.2443 14.2294C17.9341 13.0475 18.2789 11.7567 18.2789 10.3572ZM14.4218 8.4286C14.4218 7.83931 14.2359 7.29356 13.8643 6.79132C13.4926 6.28909 13.0289 5.9007 12.4731 5.62614C11.9173 5.35159 11.3481 5.21431 10.7655 5.21431C9.13828 5.21431 7.89611 5.92747 7.03896 7.35382C6.93851 7.51454 6.9653 7.65516 7.11932 7.7757L8.44521 8.78016C8.49208 8.82034 8.5557 8.84043 8.63606 8.84043C8.7432 8.84043 8.8269 8.80025 8.88717 8.71989C9.24208 8.26453 9.53003 7.9565 9.75101 7.79578C9.97869 7.63507 10.2666 7.55471 10.6149 7.55471C10.9363 7.55471 11.2226 7.64177 11.4737 7.81587C11.7248 7.98998 11.8503 8.18753 11.8503 8.40851C11.8503 8.66297 11.7834 8.86721 11.6494 9.02123C11.5155 9.17525 11.2878 9.32592 10.9664 9.47324C10.5445 9.66074 10.1578 9.95036 9.80626 10.3421C9.45469 10.7338 9.27891 11.154 9.27891 11.6027V11.9643C9.27891 12.0581 9.30905 12.1351 9.36932 12.1953C9.42958 12.2556 9.50659 12.2857 9.60034 12.2857H11.5289C11.6227 12.2857 11.6997 12.2556 11.7599 12.1953C11.8202 12.1351 11.8503 12.0581 11.8503 11.9643C11.8503 11.8371 11.9223 11.6713 12.0663 11.4671C12.2103 11.2629 12.3928 11.0971 12.6137 10.9699C12.828 10.8494 12.9921 10.7539 13.1059 10.6836C13.2198 10.6133 13.3738 10.4961 13.568 10.3321C13.7622 10.168 13.9112 10.0073 14.015 9.84991C14.1188 9.69255 14.2125 9.48998 14.2962 9.24221C14.3799 8.99444 14.4218 8.72324 14.4218 8.4286ZM11.8503 15.1786V13.25C11.8503 13.1563 11.8202 13.0793 11.7599 13.019C11.6997 12.9587 11.6227 12.9286 11.5289 12.9286H9.60034C9.50659 12.9286 9.42958 12.9587 9.36931 13.019C9.30905 13.0793 9.27891 13.1563 9.27891 13.25V15.1786C9.27891 15.2723 9.30905 15.3494 9.36931 15.4096C9.42958 15.4699 9.50659 15.5 9.60034 15.5H11.5289C11.6227 15.5 11.6997 15.4699 11.7599 15.4096C11.8202 15.3494 11.8503 15.2723 11.8503 15.1786Z" fill="#6A00F4"/>
</svg>
