<svg width="38" height="38" viewBox="0 0 38 38" fill="none" xmlns="http://www.w3.org/2000/svg">
<g id="bag">
<path id="Vector" d="M13.9499 3.1665L8.21826 8.914" stroke="white" stroke-width="2.375" stroke-miterlimit="10" stroke-linecap="round" stroke-linejoin="round"/>
<path id="Vector_2" d="M24.0518 3.1665L29.7834 8.914" stroke="white" stroke-width="2.375" stroke-miterlimit="10" stroke-linecap="round" stroke-linejoin="round"/>
<path id="Vector_3" d="M3.1665 12.4294C3.1665 9.5002 4.734 9.2627 6.6815 9.2627H31.3182C33.2657 9.2627 34.8332 9.5002 34.8332 12.4294C34.8332 15.8335 33.2657 15.596 31.3182 15.596H6.6815C4.734 15.596 3.1665 15.8335 3.1665 12.4294Z" stroke="white" stroke-width="2.375"/>
<path id="Vector_4" d="M15.4531 22.1665V27.7873" stroke="white" stroke-width="2.375" stroke-linecap="round"/>
<path id="Vector_5" d="M22.7373 22.1665V27.7873" stroke="white" stroke-width="2.375" stroke-linecap="round"/>
<path id="Vector_6" d="M5.5415 15.8335L7.774 29.5135C8.28067 32.5852 9.49984 34.8335 14.0282 34.8335H23.5757C28.4998 34.8335 29.2282 32.6802 29.7982 29.7035L32.4582 15.8335" stroke="white" stroke-width="2.375" stroke-linecap="round"/>
</g>
</svg>
